# xmcd
# Copyright (C) 1995-1998 Ti Kan
#
# Track frame offsets:
#       150
#       16254
#       30896
#
# Disc length: 618 seconds
#
# Revision: 0
# Processed by: cddbd v1.5.1PL0 Copyright (c) Steve Scherf et al.
# Submitted via: CD-Transfer v1.0
#
DISCID=11026803
DTITLE=Room 21 - 
DYEAR=2004
DGENRE=
TTITLE0=Sexy Toy Dolls
TTITLE1=Future Is Calling
TTITLE2=Drinking Caffee With My Past
EXTD=
EXTT0=
EXTT1=
EXTT2=
PLAYORDER=
